<?xml version="1.0" encoding="utf-8"?>
<!-- Generator: Adobe Illustrator 18.0.0, SVG Export Plug-In . SVG Version: 6.00 Build 0)  -->
<!DOCTYPE svg PUBLIC "-//W3C//DTD SVG 1.1//EN" "http://www.w3.org/Graphics/SVG/1.1/DTD/svg11.dtd">
<svg version="1.1" id="Layer_1" xmlns="http://www.w3.org/2000/svg" xmlns:xlink="http://www.w3.org/1999/xlink" x="0px" y="0px"
	 viewBox="0 0 16 16" enable-background="new 0 0 16 16" xml:space="preserve">
<g>
	<ellipse fill="#FFFFFF" cx="8" cy="8" rx="7.9" ry="8"/>
	<g>
		<path fill="#0C5DA5" d="M15.5,8.9C14,6.2,10.9,4.3,8,4.3c-2.4,0-4.1,1-4.6,2.8C3.3,7.5,2.9,7.7,2.6,7.6C2.3,7.5,2.1,7.2,2.1,6.9
			c0-0.1,0-0.1,0-0.2C3,4.2,5.3,2.4,8,2.4c2.8,0,5.9,1.9,7.9,4.7C15.5,3.1,12.1,0,8,0C3.9,0,0.5,3.1,0.1,7.1c0.2,0,0.3,0.1,0.4,0.3
			C2,10.1,5.1,12,8,12c2.4,0,4.1-1,4.6-2.8c0.1-0.3,0.5-0.5,0.8-0.4c0.3,0.1,0.5,0.3,0.5,0.6c0,0.1,0,0.1,0,0.2
			c-0.8,2.6-3.2,4.3-5.9,4.3c-2.8,0-5.8-1.8-7.9-4.6C0.7,13.1,4,16,8,16c4,0,7.3-3,7.9-6.8C15.8,9.1,15.6,9,15.5,8.9z M8.1,10.1
			c-1,0-1.8-0.9-1.8-1.9s0.8-1.9,1.8-1.9c1,0,1.8,0.9,1.8,1.9S9.1,10.1,8.1,10.1z"/>
	</g>
</g>
</svg>
